<svg width="31" height="32" viewBox="0 0 31 32" fill="none" xmlns="http://www.w3.org/2000/svg">
<path d="M31 16.1413C31 7.60076 24.0405 0.641258 15.5 0.641258C6.9595 0.641258 0 7.60076 0 16.1413C0 20.6363 1.9375 24.6818 5.0065 27.5183C5.0065 27.5338 5.0065 27.5338 4.991 27.5493C5.146 27.7043 5.332 27.8283 5.487 27.9678C5.58 28.0453 5.6575 28.1228 5.7505 28.1848C6.0295 28.4173 6.3395 28.6343 6.634 28.8513C6.7425 28.9288 6.8355 28.9908 6.944 29.0683C7.2385 29.2698 7.5485 29.4558 7.874 29.6263C7.9825 29.6883 8.1065 29.7658 8.215 29.8278C8.525 29.9983 8.8505 30.1533 9.1915 30.2928C9.3155 30.3548 9.4395 30.4168 9.5635 30.4633C9.9045 30.6028 10.2455 30.7268 10.5865 30.8353C10.7105 30.8818 10.8345 30.9283 10.9585 30.9593C11.3305 31.0678 11.7025 31.1608 12.0745 31.2538C12.183 31.2848 12.2915 31.3158 12.4155 31.3313C12.8495 31.4243 13.2835 31.4863 13.733 31.5328C13.795 31.5328 13.857 31.5483 13.919 31.5638C14.446 31.6103 14.973 31.6413 15.5 31.6413C16.027 31.6413 16.554 31.6103 17.0655 31.5638C17.1275 31.5638 17.1895 31.5483 17.2515 31.5328C17.701 31.4863 18.135 31.4243 18.569 31.3313C18.6775 31.3158 18.786 31.2693 18.91 31.2538C19.282 31.1608 19.6695 31.0833 20.026 30.9593C20.15 30.9128 20.274 30.8663 20.398 30.8353C20.739 30.7113 21.0955 30.6028 21.421 30.4633C21.545 30.4168 21.669 30.3548 21.793 30.2928C22.1185 30.1533 22.444 29.9983 22.7695 29.8278C22.8935 29.7658 23.002 29.6883 23.1105 29.6263C23.4205 29.4403 23.7305 29.2698 24.0405 29.0683C24.149 29.0063 24.242 28.9288 24.3505 28.8513C24.6605 28.6343 24.955 28.4173 25.234 28.1848C25.327 28.1073 25.4045 28.0298 25.4975 27.9678C25.668 27.8283 25.8385 27.6888 25.9935 27.5493C25.9935 27.5338 25.9935 27.5338 25.978 27.5183C29.0625 24.6818 31 20.6363 31 16.1413ZM23.157 23.8448C18.9565 21.0238 12.0745 21.0238 7.843 23.8448C7.161 24.2943 6.603 24.8213 6.138 25.3948C3.782 23.0078 2.325 19.7373 2.325 16.1413C2.325 8.87176 8.2305 2.96626 15.5 2.96626C22.7695 2.96626 28.675 8.87176 28.675 16.1413C28.675 19.7373 27.218 23.0078 24.862 25.3948C24.4125 24.8213 23.839 24.2943 23.157 23.8448Z" fill="#AEAEAE"/>
<path d="M15.4998 8.28227C12.2913 8.28227 9.68729 10.8863 9.68729 14.0948C9.68729 17.2413 12.1518 19.7988 15.4223 19.8918H15.7013C18.8323 19.7833 21.2968 17.2413 21.3123 14.0948C21.3123 10.8863 18.7083 8.28227 15.4998 8.28227Z" fill="#AEAEAE"/>
</svg>
