<svg width="31" height="32" viewBox="0 0 31 32" fill="none" xmlns="http://www.w3.org/2000/svg">
<path d="M19.8259 15.4474C19.2348 15.4474 18.7446 14.9572 18.7446 14.366V12.9242C18.7446 10.8191 18.2255 9.67999 15.5004 9.67999C12.7752 9.67999 12.2562 10.8191 12.2562 12.9242V14.366C12.2562 14.9572 11.7659 15.4474 11.1748 15.4474C10.5836 15.4474 10.0934 14.9572 10.0934 14.366V12.9242C10.0934 11.5832 10.0934 7.5172 15.5004 7.5172C20.9073 7.5172 20.9073 11.5832 20.9073 12.9242V14.366C20.9073 14.9572 20.4171 15.4474 19.8259 15.4474Z" fill="#AEAEAE"/>
<path d="M15.5002 20.638C14.4332 20.638 13.5536 19.7584 13.5536 18.6915C13.5536 17.6245 14.4332 16.745 15.5002 16.745C16.5671 16.745 17.4465 17.6245 17.4465 18.6915C17.4465 19.7584 16.5671 20.638 15.5002 20.638ZM15.5002 18.4752C15.3848 18.4752 15.2837 18.5761 15.2837 18.6915C15.2837 18.9366 15.7164 18.9366 15.7164 18.6915C15.7164 18.5761 15.6155 18.4752 15.5002 18.4752Z" fill="#AEAEAE"/>
<path d="M19.1045 24.0986H11.8952C8.43478 24.0986 7.2092 22.873 7.2092 19.4126V17.9707C7.2092 14.5102 8.43478 13.2847 11.8952 13.2847H19.1045C22.565 13.2847 23.7906 14.5102 23.7906 17.9707V19.4126C23.7906 22.873 22.565 24.0986 19.1045 24.0986ZM11.8952 15.4474C9.60269 15.4474 9.37199 15.6781 9.37199 17.9707V19.4126C9.37199 21.7051 9.60269 21.9358 11.8952 21.9358H19.1045C21.3971 21.9358 21.6278 21.7051 21.6278 19.4126V17.9707C21.6278 15.6781 21.3971 15.4474 19.1045 15.4474H11.8952Z" fill="#AEAEAE"/>
<path d="M15.5 31.3079C6.94977 31.3079 0 24.3582 0 15.8079C0 7.25769 6.94977 0.307922 15.5 0.307922C24.0502 0.307922 31 7.25769 31 15.8079C31 24.3582 24.0502 31.3079 15.5 31.3079ZM15.5 2.47071C8.14651 2.47071 2.16279 8.45443 2.16279 15.8079C2.16279 23.1614 8.14651 29.1451 15.5 29.1451C22.8535 29.1451 28.8372 23.1614 28.8372 15.8079C28.8372 8.45443 22.8535 2.47071 15.5 2.47071Z" fill="#AEAEAE"/>
</svg>
