<svg width="33" height="35" viewBox="0 0 33 35" fill="none" xmlns="http://www.w3.org/2000/svg">
<path d="M25.5832 23.7472C26.0459 25.4129 27.3413 26.7085 29.0071 27.1712M2 32.6158C2 26.6468 7.93818 21.8192 15.249 21.8192C16.853 21.8192 18.3954 22.0506 19.8298 22.4824M15.2479 17.1921C19.507 17.1921 22.9597 13.7394 22.9597 9.48024C22.9597 5.2211 19.507 1.76837 15.2479 1.76837C10.9887 1.76837 7.53602 5.2211 7.53602 9.48024C7.53602 13.7394 10.9887 17.1921 15.2479 17.1921ZM26.3696 22.9606L20.9094 28.4207C20.6935 28.6367 20.493 29.0375 20.4467 29.3306L20.1537 31.4128C20.0457 32.1685 20.5701 32.6929 21.3259 32.585L23.4081 32.2919C23.7011 32.2457 24.1175 32.0452 24.3181 31.8292L29.7781 26.3692C30.7189 25.4284 31.1662 24.3333 29.7781 22.9452C28.4053 21.5724 27.3104 22.0197 26.3696 22.9606Z" stroke="#AEAEAE" stroke-width="3" stroke-linecap="round" stroke-linejoin="round"/>
</svg>
