<svg width="31" height="32" viewBox="0 0 31 32" fill="none" xmlns="http://www.w3.org/2000/svg">
<path d="M19.8259 16.1141C19.2348 16.1141 18.7446 15.6239 18.7446 15.0327V13.5909C18.7446 11.4857 18.2255 10.3467 15.5004 10.3467C12.7752 10.3467 12.2562 11.4857 12.2562 13.5909V15.0327C12.2562 15.6239 11.7659 16.1141 11.1748 16.1141C10.5836 16.1141 10.0934 15.6239 10.0934 15.0327V13.5909C10.0934 12.2499 10.0934 8.18389 15.5004 8.18389C20.9073 8.18389 20.9073 12.2499 20.9073 13.5909V15.0327C20.9073 15.6239 20.4171 16.1141 19.8259 16.1141Z" fill="#AEAEAE"/>
<path d="M15.5002 21.3047C14.4332 21.3047 13.5536 20.4251 13.5536 19.3581C13.5536 18.2912 14.4332 17.4116 15.5002 17.4116C16.5671 17.4116 17.4465 18.2912 17.4465 19.3581C17.4465 20.4251 16.5671 21.3047 15.5002 21.3047ZM15.5002 19.1419C15.3848 19.1419 15.2837 19.2428 15.2837 19.3581C15.2837 19.6033 15.7164 19.6033 15.7164 19.3581C15.7164 19.2428 15.6155 19.1419 15.5002 19.1419Z" fill="#AEAEAE"/>
<path d="M19.1045 24.7653H11.8952C8.43478 24.7653 7.2092 23.5397 7.2092 20.0792V18.6374C7.2092 15.1769 8.43478 13.9513 11.8952 13.9513H19.1045C22.565 13.9513 23.7906 15.1769 23.7906 18.6374V20.0792C23.7906 23.5397 22.565 24.7653 19.1045 24.7653ZM11.8952 16.1141C9.60269 16.1141 9.37199 16.3448 9.37199 18.6374V20.0792C9.37199 22.3718 9.60269 22.6025 11.8952 22.6025H19.1045C21.3971 22.6025 21.6278 22.3718 21.6278 20.0792V18.6374C21.6278 16.3448 21.3971 16.1141 19.1045 16.1141H11.8952Z" fill="#AEAEAE"/>
<path d="M15.5 31.9746C6.94977 31.9746 0 25.0248 0 16.4746C0 7.92436 6.94977 0.974594 15.5 0.974594C24.0502 0.974594 31 7.92436 31 16.4746C31 25.0248 24.0502 31.9746 15.5 31.9746ZM15.5 3.13738C8.14651 3.13738 2.16279 9.12111 2.16279 16.4746C2.16279 23.8281 8.14651 29.8118 15.5 29.8118C22.8535 29.8118 28.8372 23.8281 28.8372 16.4746C28.8372 9.12111 22.8535 3.13738 15.5 3.13738Z" fill="#AEAEAE"/>
</svg>
